<?xml version="1.0" encoding="UTF-8" standalone="no"?>
<svg width="130px" height="44px" viewBox="0 0 130 44" version="1.1" xmlns="http://www.w3.org/2000/svg" xmlns:xlink="http://www.w3.org/1999/xlink" xmlns:sketch="http://www.bohemiancoding.com/sketch/ns">
    <!-- Generator: Sketch 3.5.1 (25234) - http://www.bohemiancoding.com/sketch -->
    <title>BlackBerry</title>
    <desc>Created with Sketch.</desc>
    <defs>
        <rect id="path-1" x="0" y="0" width="130" height="44" rx="4"></rect>
    </defs>
    <g id="Page-1" stroke="none" stroke-width="1" fill="none" fill-rule="evenodd" sketch:type="MSPage">
        <g id="Desktop-Landscape" sketch:type="MSArtboardGroup" transform="translate(-648.000000, -373.000000)">
            <g id="BlackBerry" sketch:type="MSLayerGroup" transform="translate(648.000000, 373.000000)">
                <mask id="mask-2" sketch:name="Mask" fill="white">
                    <use xlink:href="#path-1"></use>
                </mask>
                <use id="Mask" fill="#363636" sketch:type="MSShapeGroup" xlink:href="#path-1"></use>
                <g id="Group-4" mask="url(#mask-2)" sketch:type="MSShapeGroup">
                    <g transform="translate(6.000000, 4.000000)">
                        <path d="M14.4144183,11.7110722 C14.4144183,10.9545325 13.9445997,10 11.9806316,10 L8.95106383,10 L8.09550428,13.9288359 L11.244721,13.9288359 C13.7113072,13.9288359 14.4144183,12.7787435 14.4144183,11.7110722 Z M22.5642389,11.7110722 C22.5642389,10.9545325 22.0968841,10 20.1310682,10 L17.10689,10 L16.2470188,13.9288359 L19.3979295,13.9288359 C21.8640537,13.9288359 22.5642389,12.7787435 22.5642389,11.7110722 Z M13.3212238,17.6235474 C13.3212238,16.8674639 12.8520212,15.916581 10.8862053,15.916581 L7.86094914,15.916581 L7,19.8402466 L10.1569162,19.8402466 C12.6176508,19.8402466 13.3212238,18.6898501 13.3212238,17.6235474 Z M21.471722,17.6235474 C21.471722,16.8674639 21.0037513,15.916581 19.0410151,15.916581 L16.0125253,15.916581 L15.153424,19.8402466 L18.3043346,19.8402466 C20.7696889,19.8402466 21.471722,18.6898501 21.471722,17.6235474 Z M30,15.226039 C30,14.4705639 29.5341851,13.5146627 27.5689851,13.5146627 L24.5424971,13.5146627 L23.680932,17.4448672 L26.8330746,17.4448672 C29.2990448,17.4448672 30,16.2938624 30,15.226039 Z M20.298777,23.7799553 C20.298777,23.0256967 19.833886,22.0690352 17.8709959,22.0690352 L14.8414281,22.0690352 L13.9818649,26 L17.139859,26 C19.6001316,26 20.298777,24.8514283 20.298777,23.7799553 Z M28.8259462,21.3839828 C28.8259462,20.6306366 28.3581295,19.6726065 26.3923136,19.6726065 L23.3656716,19.6726065 L22.5076482,23.6008341 L25.6602527,23.6008341 C28.1239131,23.6008341 28.8259462,22.4521104 28.8259462,21.3839828 Z" id="Fill-1" stroke="none" fill="#FFFFFF" fill-rule="evenodd"></path>
                        <circle id="Oval-1" stroke="#FFFFFF" stroke-width="2" fill="none" cx="18" cy="18" r="18"></circle>
                    </g>
                </g>
                <path d="M52.081,9.068 C52.081,9.3946683 52.047167,9.66649891 51.9795,9.8835 C51.911833,10.1005011 51.7963342,10.2976658 51.633,10.475 C51.4463324,10.671001 51.2375012,10.8144995 51.0065,10.9055 C50.7754988,10.9965005 50.5270013,11.042 50.261,11.042 C49.9856653,11.042 49.7430011,10.9988338 49.533,10.9125 C49.322999,10.8261662 49.1363342,10.7013341 48.973,10.538 C48.8516661,10.4166661 48.757167,10.2906673 48.6895,10.16 C48.621833,10.0293327 48.5716668,9.88583411 48.539,9.7295 C48.5063332,9.57316588 48.4865,9.39583432 48.4795,9.1975 C48.4725,8.99916567 48.469,8.76933464 48.469,8.508 C48.469,8.24666536 48.4725,8.01683432 48.4795,7.8185 C48.4865,7.62016567 48.5063332,7.44283411 48.539,7.2865 C48.5716668,7.13016588 48.621833,6.98666732 48.6895,6.856 C48.757167,6.72533268 48.8516661,6.59933394 48.973,6.478 C49.1363342,6.31466585 49.322999,6.18983376 49.533,6.1035 C49.7430011,6.01716623 49.9856653,5.974 50.261,5.974 C50.5223346,5.974 50.757999,6.01483292 50.968,6.0965 C51.1780011,6.17816707 51.3588326,6.2889993 51.5105,6.429 C51.6621674,6.5690007 51.7846662,6.7323324 51.878,6.919 C51.9713338,7.1056676 52.0343332,7.30399895 52.067,7.514 L51.311,7.514 C51.2456663,7.23866529 51.1243342,7.02516742 50.947,6.8735 C50.7696658,6.72183257 50.5410014,6.646 50.261,6.646 C49.9623318,6.646 49.715001,6.74866564 49.519,6.954 C49.458333,7.01933366 49.4081669,7.09166627 49.3685,7.171 C49.3288331,7.25033373 49.2985001,7.34716609 49.2775,7.4615 C49.2564999,7.5758339 49.2425,7.71699916 49.2355,7.885 C49.2285,8.05300084 49.225,8.26066543 49.225,8.508 C49.225,8.75533457 49.2285,8.96299916 49.2355,9.131 C49.2425,9.29900084 49.2564999,9.44016609 49.2775,9.5545 C49.2985001,9.6688339 49.3288331,9.76566627 49.3685,9.845 C49.4081669,9.92433373 49.458333,9.99666634 49.519,10.062 C49.715001,10.2673344 49.9623318,10.37 50.261,10.37 C50.4243342,10.37 50.577166,10.339667 50.7195,10.279 C50.861834,10.218333 50.9819995,10.1296672 51.08,10.013 C51.1733338,9.90566613 51.2374998,9.78900063 51.2725,9.663 C51.3075002,9.53699937 51.325,9.39233415 51.325,9.229 L51.325,8.949 L50.261,8.949 L50.261,8.305 L52.081,8.305 L52.081,9.068 Z M53.635,9.432 C53.635,9.74000154 53.7119992,9.98266578 53.866,10.16 C54.0200008,10.3373342 54.2439985,10.426 54.538,10.426 C54.7386677,10.426 54.9008327,10.3968336 55.0245,10.3385 C55.1481673,10.2801664 55.2729994,10.1880006 55.399,10.062 L55.854,10.489 C55.7606662,10.5823338 55.6685005,10.662833 55.5775,10.7305 C55.4864995,10.798167 55.3885005,10.8553331 55.2835,10.902 C55.1784995,10.9486669 55.0641673,10.9836665 54.9405,11.007 C54.8168327,11.0303334 54.6780008,11.042 54.524,11.042 C54.2999989,11.042 54.0911676,11.0105003 53.8975,10.9475 C53.7038324,10.8844997 53.535834,10.781834 53.3935,10.6395 C53.251166,10.497166 53.1380004,10.3093345 53.054,10.076 C52.9699996,9.8426655 52.928,9.55800168 52.928,9.222 C52.928,8.63866375 53.0644986,8.19066823 53.3375,7.878 C53.6105014,7.56533177 53.9756644,7.409 54.433,7.409 C54.6710012,7.409 54.8833324,7.44983292 55.07,7.5315 C55.2566676,7.61316707 55.414166,7.72983257 55.5425,7.8815 C55.670834,8.03316742 55.768833,8.2151656 55.8365,8.4275 C55.904167,8.63983439 55.938,8.87433205 55.938,9.131 L55.938,9.432 L53.635,9.432 Z M55.231,8.935 C55.2216666,8.82766613 55.2123334,8.740167 55.203,8.6725 C55.1936666,8.60483299 55.1703335,8.53133373 55.133,8.452 C55.072333,8.31666599 54.9825006,8.20816707 54.8635,8.1265 C54.7444994,8.04483292 54.6010008,8.004 54.433,8.004 C54.2603325,8.004 54.1145006,8.04483292 53.9955,8.1265 C53.8764994,8.20816707 53.786667,8.31666599 53.726,8.452 C53.6886665,8.53133373 53.6653334,8.60483299 53.656,8.6725 C53.6466666,8.740167 53.6396667,8.82766613 53.635,8.935 L55.231,8.935 Z M57.94,11 C57.7719992,11 57.6273339,10.9720003 57.506,10.916 C57.3846661,10.8599997 57.2843337,10.7865005 57.205,10.6955 C57.1256663,10.6044995 57.0661669,10.4995006 57.0265,10.3805 C56.9868331,10.2614994 56.967,10.1390006 56.967,10.013 L56.967,7.997 L56.561,7.997 L56.561,7.451 L56.967,7.451 L56.967,6.436 L57.681,6.436 L57.681,7.451 L58.367,7.451 L58.367,7.997 L57.681,7.997 L57.681,9.978 C57.681,10.1086673 57.7124997,10.2101663 57.7755,10.2825 C57.8385003,10.3548337 57.937666,10.391 58.073,10.391 L58.367,10.391 L58.367,11 L57.94,11 Z M60.957,11 L60.957,7.451 L61.671,7.451 L61.671,11 L60.957,11 Z M60.936,6.751 L60.936,5.995 L61.692,5.995 L61.692,6.751 L60.936,6.751 Z M63.862,11 C63.6939992,11 63.5493339,10.9720003 63.428,10.916 C63.3066661,10.8599997 63.2063337,10.7865005 63.127,10.6955 C63.0476663,10.6044995 62.9881669,10.4995006 62.9485,10.3805 C62.9088331,10.2614994 62.889,10.1390006 62.889,10.013 L62.889,7.997 L62.483,7.997 L62.483,7.451 L62.889,7.451 L62.889,6.436 L63.603,6.436 L63.603,7.451 L64.289,7.451 L64.289,7.997 L63.603,7.997 L63.603,9.978 C63.603,10.1086673 63.6344997,10.2101663 63.6975,10.2825 C63.7605003,10.3548337 63.859666,10.391 63.995,10.391 L64.289,10.391 L64.289,11 L63.862,11 Z M68.79,11 L68.79,10.678 C68.6593327,10.8086673 68.5240007,10.9019997 68.384,10.958 C68.2439993,11.0140003 68.0643344,11.042 67.845,11.042 C67.6209989,11.042 67.4331674,11.0151669 67.2815,10.9615 C67.1298326,10.9078331 67.0003339,10.8273339 66.893,10.72 C66.7063324,10.523999 66.613,10.2696682 66.613,9.957 C66.613,9.65833184 66.7156656,9.41333429 66.921,9.222 C67.1263344,9.03066571 67.4343313,8.935 67.845,8.935 L68.776,8.935 L68.776,8.683 C68.776,8.45433219 68.7165006,8.28633387 68.5975,8.179 C68.4784994,8.07166613 68.2790014,8.018 67.999,8.018 C67.8076657,8.018 67.6560006,8.04483306 67.544,8.0985 C67.4319994,8.15216693 67.3246672,8.24199937 67.222,8.368 L66.76,7.927 C66.8440004,7.82899951 66.9291662,7.74733366 67.0155,7.682 C67.1018338,7.61666634 67.1951662,7.56300021 67.2955,7.521 C67.3958338,7.47899979 67.5054994,7.44983341 67.6245,7.4335 C67.7435006,7.41716658 67.8776659,7.409 68.027,7.409 C68.5216691,7.409 68.8891655,7.51166564 69.1295,7.717 C69.3698345,7.92233436 69.49,8.22566466 69.49,8.627 L69.49,11 L68.79,11 Z M68.776,9.432 L67.957,9.432 C67.5229978,9.432 67.306,9.60233163 67.306,9.943 C67.306,10.1063341 67.3584995,10.2311662 67.4635,10.3175 C67.5685005,10.4038338 67.7399988,10.447 67.978,10.447 C68.1040006,10.447 68.2194995,10.4353334 68.3245,10.412 C68.4295005,10.3886665 68.5286662,10.3326671 68.622,10.244 C68.7246672,10.1459995 68.776,9.97100126 68.776,9.719 L68.776,9.432 Z M71.646,11 C71.4779992,11 71.3333339,10.9720003 71.212,10.916 C71.0906661,10.8599997 70.9903337,10.7865005 70.911,10.6955 C70.8316663,10.6044995 70.7721669,10.4995006 70.7325,10.3805 C70.6928331,10.2614994 70.673,10.1390006 70.673,10.013 L70.673,7.997 L70.267,7.997 L70.267,7.451 L70.673,7.451 L70.673,6.436 L71.387,6.436 L71.387,7.451 L72.073,7.451 L72.073,7.997 L71.387,7.997 L71.387,9.978 C71.387,10.1086673 71.4184997,10.2101663 71.4815,10.2825 C71.5445003,10.3548337 71.643666,10.391 71.779,10.391 L72.073,10.391 L72.073,11 L71.646,11 Z" id="Get-it-at" fill="#FFFFFF" sketch:type="MSShapeGroup" mask="url(#mask-2)"></path>
                <path d="M55.88,21.545 C55.88,22.0250024 55.8025008,22.4499981 55.6475,22.82 C55.4924992,23.1900018 55.2750014,23.4999987 54.995,23.75 C54.7149986,24.0000012 54.3800019,24.1874994 53.99,24.3125 C53.599998,24.4375006 53.1700023,24.5 52.7,24.5 L48.545,24.5 L48.545,13.82 L52.565,13.82 C53.0250023,13.82 53.449998,13.8849993 53.84,14.015 C54.2300019,14.1450006 54.5624986,14.3324988 54.8375,14.5775 C55.1125014,14.8225012 55.3274992,15.1199982 55.4825,15.47 C55.6375008,15.8200017 55.715,16.2199977 55.715,16.67 C55.715,17.2400028 55.5650015,17.7299979 55.265,18.14 C54.9649985,18.550002 54.5900022,18.8399991 54.14,19.01 C54.6500025,19.2000009 55.0674984,19.5099978 55.3925,19.94 C55.7175016,20.3700021 55.88,20.9049968 55.88,21.545 L55.88,21.545 Z M54.74,21.515 C54.74,20.914997 54.5475019,20.4400017 54.1625,20.09 C53.7774981,19.7399982 53.2550033,19.565 52.595,19.565 L49.685,19.565 L49.685,23.48 L52.595,23.48 C53.2550033,23.48 53.7774981,23.3025018 54.1625,22.9475 C54.5475019,22.5924982 54.74,22.115003 54.74,21.515 L54.74,21.515 Z M54.575,16.685 C54.575,16.3649984 54.5200005,16.0900011 54.41,15.86 C54.2999994,15.6299988 54.1525009,15.4400007 53.9675,15.29 C53.7824991,15.1399992 53.5625013,15.0275004 53.3075,14.9525 C53.0524987,14.8774996 52.7750015,14.84 52.475,14.84 L49.685,14.84 L49.685,18.545 L52.475,18.545 C52.7750015,18.545 53.0524987,18.5075004 53.3075,18.4325 C53.5625013,18.3574996 53.7824991,18.2450007 53.9675,18.095 C54.1525009,17.9449992 54.2999994,17.7525012 54.41,17.5175 C54.5200005,17.2824988 54.575,17.0050016 54.575,16.685 L54.575,16.685 Z M60.215,24.5 C59.5649967,24.5 59.0900015,24.3125019 58.79,23.9375 C58.4899985,23.5624981 58.34,23.0950028 58.34,22.535 L58.34,13.82 L59.42,13.82 L59.42,22.49 C59.42,22.8500018 59.4899993,23.1199991 59.63,23.3 C59.7700007,23.4800009 60.0299981,23.57 60.41,23.57 L60.995,23.57 L60.995,24.5 L60.215,24.5 Z M66.965,24.5 L66.965,23.795 C66.6749985,24.0850014 66.3700016,24.2899994 66.05,24.41 C65.7299984,24.5300006 65.3250024,24.59 64.835,24.59 C64.3249974,24.59 63.9150015,24.5400005 63.605,24.44 C63.2949984,24.3399995 63.0100013,24.1650012 62.75,23.915 C62.559999,23.7349991 62.4200004,23.5125013 62.33,23.2475 C62.2399995,22.9824987 62.195,22.7050014 62.195,22.415 C62.195,21.7549967 62.4149978,21.2350019 62.855,20.855 C63.2950022,20.4749981 63.9299958,20.285 64.76,20.285 L66.965,20.285 L66.965,19.58 C66.965,19.0399973 66.8225014,18.6350013 66.5375,18.365 C66.2524986,18.0949986 65.7650034,17.96 65.075,17.96 C64.6049976,17.96 64.2350013,18.0249993 63.965,18.155 C63.6949986,18.2850006 63.4450011,18.5049984 63.215,18.815 L62.48,18.14 C62.8000016,17.7099978 63.162498,17.4175008 63.5675,17.2625 C63.972502,17.1074992 64.4799969,17.03 65.09,17.03 C66.090005,17.03 66.8324976,17.2399979 67.3175,17.66 C67.8025024,18.0800021 68.045,18.689996 68.045,19.49 L68.045,24.5 L66.965,24.5 Z M66.965,21.095 L64.91,21.095 C63.7999944,21.095 63.245,21.5299956 63.245,22.4 C63.245,22.8300021 63.3799986,23.147499 63.65,23.3525 C63.9200013,23.557501 64.354997,23.66 64.955,23.66 C65.2650015,23.66 65.5549986,23.6325003 65.825,23.5775 C66.0950013,23.5224997 66.3499988,23.3850011 66.59,23.165 C66.8400012,22.9249988 66.965,22.500003 66.965,21.89 L66.965,21.095 Z M75.965,23.495 C75.5849981,23.905002 75.2125018,24.1899992 74.8475,24.35 C74.4824982,24.5100008 74.0450025,24.59 73.535,24.59 C73.0649976,24.59 72.632502,24.5125008 72.2375,24.3575 C71.842498,24.2024992 71.4975015,23.9675016 71.2025,23.6525 C70.9074985,23.3374984 70.6775008,22.9425024 70.5125,22.4675 C70.3474992,21.9924976 70.265,21.4400031 70.265,20.81 C70.265,20.1799968 70.3474992,19.6300023 70.5125,19.16 C70.6775008,18.6899976 70.9074985,18.2975016 71.2025,17.9825 C71.4975015,17.6674984 71.842498,17.4300008 72.2375,17.27 C72.632502,17.1099992 73.0649976,17.03 73.535,17.03 C74.0450025,17.03 74.4824982,17.1099992 74.8475,17.27 C75.2125018,17.4300008 75.5849981,17.7149979 75.965,18.125 L75.23,18.815 C74.9499986,18.5049984 74.6850012,18.2900006 74.435,18.17 C74.1849987,18.0499994 73.8850017,17.99 73.535,17.99 C73.1749982,17.99 72.8500014,18.0599993 72.56,18.2 C72.2699985,18.3400007 72.025001,18.5499986 71.825,18.83 C71.6549991,19.0700012 71.5325004,19.3424985 71.4575,19.6475 C71.3824996,19.9525015 71.345,20.3399976 71.345,20.81 C71.345,21.2800023 71.3824996,21.6674985 71.4575,21.9725 C71.5325004,22.2775015 71.6549991,22.5499988 71.825,22.79 C72.025001,23.0700014 72.2699985,23.2799993 72.56,23.42 C72.8500014,23.5600007 73.1749982,23.63 73.535,23.63 C73.8850017,23.63 74.1849987,23.5675006 74.435,23.4425 C74.6850012,23.3174994 74.9499986,23.1000015 75.23,22.79 L75.965,23.495 Z M82.88,24.5 L80.54,20.72 L79.1,22.37 L79.1,24.5 L78.02,24.5 L78.02,13.82 L79.1,13.82 L79.1,20.96 L82.43,17.12 L83.78,17.12 L81.275,19.94 L84.215,24.5 L82.88,24.5 Z M93.59,21.545 C93.59,22.0250024 93.5125008,22.4499981 93.3575,22.82 C93.2024992,23.1900018 92.9850014,23.4999987 92.705,23.75 C92.4249986,24.0000012 92.0900019,24.1874994 91.7,24.3125 C91.309998,24.4375006 90.8800023,24.5 90.41,24.5 L86.255,24.5 L86.255,13.82 L90.275,13.82 C90.7350023,13.82 91.159998,13.8849993 91.55,14.015 C91.9400019,14.1450006 92.2724986,14.3324988 92.5475,14.5775 C92.8225014,14.8225012 93.0374992,15.1199982 93.1925,15.47 C93.3475008,15.8200017 93.425,16.2199977 93.425,16.67 C93.425,17.2400028 93.2750015,17.7299979 92.975,18.14 C92.6749985,18.550002 92.3000022,18.8399991 91.85,19.01 C92.3600025,19.2000009 92.7774984,19.5099978 93.1025,19.94 C93.4275016,20.3700021 93.59,20.9049968 93.59,21.545 L93.59,21.545 Z M92.45,21.515 C92.45,20.914997 92.2575019,20.4400017 91.8725,20.09 C91.4874981,19.7399982 90.9650033,19.565 90.305,19.565 L87.395,19.565 L87.395,23.48 L90.305,23.48 C90.9650033,23.48 91.4874981,23.3025018 91.8725,22.9475 C92.2575019,22.5924982 92.45,22.115003 92.45,21.515 L92.45,21.515 Z M92.285,16.685 C92.285,16.3649984 92.2300005,16.0900011 92.12,15.86 C92.0099994,15.6299988 91.8625009,15.4400007 91.6775,15.29 C91.4924991,15.1399992 91.2725013,15.0275004 91.0175,14.9525 C90.7624987,14.8774996 90.4850015,14.84 90.185,14.84 L87.395,14.84 L87.395,18.545 L90.185,18.545 C90.4850015,18.545 90.7624987,18.5075004 91.0175,18.4325 C91.2725013,18.3574996 91.4924991,18.2450007 91.6775,18.095 C91.8625009,17.9449992 92.0099994,17.7525012 92.12,17.5175 C92.2300005,17.2824988 92.285,17.0050016 92.285,16.685 L92.285,16.685 Z M96.755,21.095 C96.755,21.905004 96.9374982,22.5324978 97.3025,22.9775 C97.6675018,23.4225022 98.2099964,23.645 98.93,23.645 C99.3600021,23.645 99.7174986,23.5775007 100.0025,23.4425 C100.287501,23.3074993 100.574999,23.0950014 100.865,22.805 L101.6,23.45 C101.409999,23.6400009 101.222501,23.8049993 101.0375,23.945 C100.852499,24.0850007 100.652501,24.2024995 100.4375,24.2975 C100.222499,24.3925005 99.9900012,24.4649997 99.74,24.515 C99.4899987,24.5650002 99.2100015,24.59 98.9,24.59 C98.4099975,24.59 97.965002,24.5150007 97.565,24.365 C97.164998,24.2149992 96.8250014,23.9850015 96.545,23.675 C96.2649986,23.3649984 96.0500007,22.9725024 95.9,22.4975 C95.7499992,22.0224976 95.675,21.4600032 95.675,20.81 C95.675,19.5999939 95.9449973,18.6675033 96.485,18.0125 C97.0250027,17.3574967 97.7649953,17.03 98.705,17.03 C99.6750048,17.03 100.422497,17.3474968 100.9475,17.9825 C101.472503,18.6175032 101.735,19.4949944 101.735,20.615 L101.735,21.095 L96.755,21.095 Z M100.67,20.285 C100.66,20.1349992 100.65,20.0050005 100.64,19.895 C100.63,19.7849994 100.6175,19.6850004 100.6025,19.595 C100.5875,19.5049995 100.565,19.4175004 100.535,19.3325 C100.505,19.2474996 100.47,19.1550005 100.43,19.055 C100.269999,18.7149983 100.042501,18.445001 99.7475,18.245 C99.4524985,18.044999 99.105002,17.945 98.705,17.945 C98.304998,17.945 97.9575015,18.044999 97.6625,18.245 C97.3674985,18.445001 97.1400008,18.7149983 96.98,19.055 C96.9299997,19.1550005 96.8925001,19.2474996 96.8675,19.3325 C96.8424999,19.4175004 96.8225001,19.5049995 96.8075,19.595 C96.7924999,19.6850004 96.7825,19.7849994 96.7775,19.895 C96.7725,20.0050005 96.765,20.1349992 96.755,20.285 L100.67,20.285 Z M108.155,18.53 C107.954999,18.329999 107.765001,18.1900004 107.585,18.11 C107.404999,18.0299996 107.170001,17.99 106.88,17.99 C106.609999,17.99 106.365001,18.0399995 106.145,18.14 C105.924999,18.2400005 105.740001,18.3799991 105.59,18.56 C105.439999,18.7400009 105.3225,18.9499988 105.2375,19.19 C105.1525,19.4300012 105.11,19.6899986 105.11,19.97 L105.11,24.5 L104.03,24.5 L104.03,17.12 L105.11,17.12 L105.11,18.02 C105.310001,17.7099984 105.597498,17.4675009 105.9725,17.2925 C106.347502,17.1174991 106.749998,17.03 107.18,17.03 C107.530002,17.03 107.847499,17.0799995 108.1325,17.18 C108.417501,17.2800005 108.689999,17.4599987 108.95,17.72 L108.155,18.53 Z M114.47,18.53 C114.269999,18.329999 114.080001,18.1900004 113.9,18.11 C113.719999,18.0299996 113.485001,17.99 113.195,17.99 C112.924999,17.99 112.680001,18.0399995 112.46,18.14 C112.239999,18.2400005 112.055001,18.3799991 111.905,18.56 C111.754999,18.7400009 111.6375,18.9499988 111.5525,19.19 C111.4675,19.4300012 111.425,19.6899986 111.425,19.97 L111.425,24.5 L110.345,24.5 L110.345,17.12 L111.425,17.12 L111.425,18.02 C111.625001,17.7099984 111.912498,17.4675009 112.2875,17.2925 C112.662502,17.1174991 113.064998,17.03 113.495,17.03 C113.845002,17.03 114.162499,17.0799995 114.4475,17.18 C114.732501,17.2800005 115.004999,17.4599987 115.265,17.72 L114.47,18.53 Z M118.49,26.285 C118.349999,26.6750019 118.175001,26.964999 117.965,27.155 C117.764999,27.3450009 117.540001,27.4774996 117.29,27.5525 C117.039999,27.6275004 116.785001,27.665 116.525,27.665 L116.06,27.665 L116.06,26.705 L116.39,26.705 C116.760002,26.705 117.024999,26.6375007 117.185,26.5025 C117.345001,26.3674993 117.484999,26.1300017 117.605,25.79 L118.13,24.35 L115.475,17.12 L116.645,17.12 L118.67,23.045 L120.68,17.12 L121.85,17.12 L118.49,26.285 Z" fill="#FFFFFF" sketch:type="MSShapeGroup" mask="url(#mask-2)"></path>
                <path d="M57.84,38 L56.775,38 L54.405,29.45 L52.035,38 L50.97,38 L48.24,27.32 L49.455,27.32 L51.54,35.93 L53.895,27.32 L54.915,27.32 L57.27,35.93 L59.355,27.32 L60.57,27.32 L57.84,38 Z M67.2,34.31 C67.2,34.8800028 67.1425006,35.4174975 67.0275,35.9225 C66.9124994,36.4275025 66.6700019,36.8699981 66.3,37.25 C66.0399987,37.5100013 65.7350018,37.7149992 65.385,37.865 C65.0349983,38.0150007 64.6350023,38.09 64.185,38.09 C63.7349978,38.09 63.3350018,38.0150007 62.985,37.865 C62.6349983,37.7149992 62.3300013,37.5100013 62.07,37.25 C61.8799991,37.059999 61.7275006,36.8525011 61.6125,36.6275 C61.4974994,36.4024989 61.4075003,36.1675012 61.3425,35.9225 C61.2774997,35.6774988 61.2325001,35.4200013 61.2075,35.15 C61.1824999,34.8799986 61.17,34.6000014 61.17,34.31 C61.17,33.7399971 61.2249995,33.2025025 61.335,32.6975 C61.4450006,32.1924975 61.6899981,31.7500019 62.07,31.37 C62.3300013,31.1099987 62.6349983,30.9050007 62.985,30.755 C63.3350018,30.6049992 63.7349978,30.53 64.185,30.53 C64.6350023,30.53 65.0349983,30.6049992 65.385,30.755 C65.7350018,30.9050007 66.0399987,31.1099987 66.3,31.37 C66.6800019,31.7500019 66.9249995,32.1924975 67.035,32.6975 C67.1450005,33.2025025 67.2,33.7399971 67.2,34.31 L67.2,34.31 Z M66.12,34.31 C66.12,33.8899979 66.0900003,33.4725021 66.03,33.0575 C65.9699997,32.6424979 65.8050013,32.3000013 65.535,32.03 C65.1749982,31.6699982 64.7250027,31.49 64.185,31.49 C63.6549974,31.49 63.2100018,31.6699982 62.85,32.03 C62.5799987,32.3000013 62.4125003,32.6424979 62.3475,33.0575 C62.2824997,33.4725021 62.25,33.8899979 62.25,34.31 C62.25,34.520001 62.255,34.7299989 62.265,34.94 C62.2750001,35.150001 62.2999998,35.354999 62.34,35.555 C62.3800002,35.755001 62.4399996,35.9424991 62.52,36.1175 C62.6000004,36.2925009 62.7099993,36.4499993 62.85,36.59 C63.2100018,36.9500018 63.6549974,37.13 64.185,37.13 C64.7250027,37.13 65.1749982,36.9500018 65.535,36.59 C65.8050013,36.3099986 65.9699997,35.965002 66.03,35.555 C66.0900003,35.1449979 66.12,34.7300021 66.12,34.31 L66.12,34.31 Z M73.635,32.03 C73.434999,31.829999 73.2450009,31.6900004 73.065,31.61 C72.8849991,31.5299996 72.6500014,31.49 72.36,31.49 C72.0899987,31.49 71.8450011,31.5399995 71.625,31.64 C71.4049989,31.7400005 71.2200007,31.8799991 71.07,32.06 C70.9199992,32.2400009 70.8025004,32.4499988 70.7175,32.69 C70.6324996,32.9300012 70.59,33.1899986 70.59,33.47 L70.59,38 L69.51,38 L69.51,30.62 L70.59,30.62 L70.59,31.52 C70.790001,31.2099984 71.0774981,30.9675009 71.4525,30.7925 C71.8275019,30.6174991 72.2299978,30.53 72.66,30.53 C73.0100017,30.53 73.3274986,30.5799995 73.6125,30.68 C73.8975014,30.7800005 74.1699987,30.9599987 74.43,31.22 L73.635,32.03 Z M77.67,38 C77.0199967,38 76.5450015,37.8125019 76.245,37.4375 C75.9449985,37.0624981 75.795,36.5950028 75.795,36.035 L75.795,27.32 L76.875,27.32 L76.875,35.99 C76.875,36.3500018 76.9449993,36.6199991 77.085,36.8 C77.2250007,36.9800009 77.4849981,37.07 77.865,37.07 L78.45,37.07 L78.45,38 L77.67,38 Z M84.495,38 L84.495,37.115 C84.1849984,37.5050019 83.8625017,37.7649993 83.5275,37.895 C83.1924983,38.0250006 82.8150021,38.09 82.395,38.09 C82.0149981,38.09 81.6700015,38.0325006 81.36,37.9175 C81.0499985,37.8024994 80.795001,37.645001 80.595,37.445 C80.2249982,37.0649981 79.9825006,36.5975028 79.8675,36.0425 C79.7524994,35.4874972 79.695,34.910003 79.695,34.31 C79.695,34.0099985 79.7074999,33.7125015 79.7325,33.4175 C79.7575001,33.1224985 79.8024997,32.8400013 79.8675,32.57 C79.9325003,32.2999986 80.0249994,32.0450012 80.145,31.805 C80.2650006,31.5649988 80.4149991,31.3550009 80.595,31.175 C80.795001,30.974999 81.0499985,30.8175006 81.36,30.7025 C81.6700015,30.5874994 82.0149981,30.53 82.395,30.53 C82.8150021,30.53 83.1899983,30.5924994 83.52,30.7175 C83.8500016,30.8425006 84.1699985,31.0949981 84.48,31.475 L84.48,27.32 L85.56,27.32 L85.56,38 L84.495,38 Z M84.48,34.31 C84.48,33.9499982 84.4600002,33.6000017 84.42,33.26 C84.3799998,32.9199983 84.2950006,32.6200013 84.165,32.36 C84.0349993,32.0999987 83.8475012,31.8900008 83.6025,31.73 C83.3574988,31.5699992 83.035002,31.49 82.635,31.49 C82.2249979,31.49 81.9000012,31.5699992 81.66,31.73 C81.4199988,31.8900008 81.2325007,32.0999987 81.0975,32.36 C80.9624993,32.6200013 80.8750002,32.9199983 80.835,33.26 C80.7949998,33.6000017 80.775,33.9499982 80.775,34.31 C80.775,34.6700018 80.7949998,35.0199983 80.835,35.36 C80.8750002,35.7000017 80.9624993,35.9999987 81.0975,36.26 C81.2325007,36.5200013 81.4199988,36.7299992 81.66,36.89 C81.9000012,37.0500008 82.2249979,37.13 82.635,37.13 C83.035002,37.13 83.3574988,37.0500008 83.6025,36.89 C83.8475012,36.7299992 84.0349993,36.5200013 84.165,36.26 C84.2950006,35.9999987 84.3799998,35.7000017 84.42,35.36 C84.4600002,35.0199983 84.48,34.6700018 84.48,34.31 L84.48,34.31 Z" id="World" fill="#FFFFFF" sketch:type="MSShapeGroup" mask="url(#mask-2)"></path>
            </g>
        </g>
    </g>
</svg>