<?xml version="1.0" encoding="UTF-8" standalone="no"?>
<svg width="130px" height="44px" viewBox="0 0 130 44" version="1.1" xmlns="http://www.w3.org/2000/svg" xmlns:xlink="http://www.w3.org/1999/xlink" xmlns:sketch="http://www.bohemiancoding.com/sketch/ns">
    <!-- Generator: Sketch 3.5.1 (25234) - http://www.bohemiancoding.com/sketch -->
    <title>WindowsStore</title>
    <desc>Created with Sketch.</desc>
    <defs></defs>
    <g id="Page-1" stroke="none" stroke-width="1" fill="none" fill-rule="evenodd" sketch:type="MSPage">
        <g id="Desktop-Landscape" sketch:type="MSArtboardGroup" transform="translate(-648.000000, -433.000000)">
            <g id="WindowsStore" sketch:type="MSLayerGroup" transform="translate(648.000000, 433.000000)">
                <rect id="Rectangle-4-Copy-2" fill="#363636" sketch:type="MSShapeGroup" x="0" y="0" width="130" height="44" rx="4"></rect>
                <g id="Group" transform="translate(10.000000, 6.000000)" fill="#FFFFFF" sketch:type="MSShapeGroup">
                    <path d="M12.9130435,2.67901235 C11.5571739,3.14439506 10.5652174,3.54318519 10.5652174,6.07982716 L10.5652174,7.29724691 L11.3771739,7.13803704 L11.3771739,6.08633333 C11.358,4.36679012 11.8146522,4.00665432 13.001087,3.5052963 C12.9944348,3.18075309 12.9658696,2.90481481 12.9130435,2.67901235" id="Fill-3"></path>
                    <path d="M15.2608696,2.00378583 C15.3164348,2.25025497 15.3571304,2.51700805 15.3864783,2.80442781 C17.510087,2.50590929 17.4709565,3.36281052 17.4709565,5.15200805 L17.4709565,5.81142781 L18.275087,5.65030435 L18.275087,5.15200805 C18.275087,2.37310682 17.8301739,1.62910682 15.2608696,2.00378583" id="Fill-4"></path>
                    <path d="M6.68386957,8.16999042 L6.68386957,4.51543486 C6.65726087,2.25013856 7.85347826,1.55627437 10.0588696,1.05262005 C13.3837826,0.290249675 13.595087,2.38485461 13.595087,3.71823733 L13.595087,6.81632375 L14.4093913,6.65711387 L14.4093913,3.7867435 C14.4015652,1.26349659 13.5966522,-0.625589831 9.89882609,0.19380523 C7.90591304,0.635459551 5.86956522,1.13222498 5.86956522,4.43927437 L5.86956522,8.32766943 L6.68386957,8.16999042" id="Fill-5"></path>
                    <path d="M16.6484348,17.9639259 L10.1907391,17.9639259 L10.1907391,13.3644444 L16.6484348,12.4692716 L16.6484348,17.9639259 L16.6484348,17.9639259 Z M16.6484348,24.0487284 L10.1907391,23.151642 L10.1907391,18.3294198 L16.6484348,18.3294198 L16.6484348,24.0487284 L16.6484348,24.0487284 Z M9.82017391,17.9639259 L4.80913043,17.9639259 L4.80913043,14.0866296 L9.82017391,13.402716 L9.82017391,17.9639259 L9.82017391,17.9639259 Z M9.82017391,23.1149012 L4.80913043,22.4306049 L4.80913043,18.3294198 L9.82017391,18.3294198 L9.82017391,23.1149012 L9.82017391,23.1149012 Z M22.3653913,6.12345679 L0,10.4959877 L0,26.4070247 L22.3653913,30.783 L26.8368261,29.1909012 L26.8368261,7.71440741 L22.3653913,6.12345679 L22.3653913,6.12345679 Z" id="Fill-6"></path>
                </g>
                <path d="M54.140625,12.2978516 L51.965332,20 L50.9072266,20 L49.3227539,14.3710938 C49.2547197,14.1311837 49.2135417,13.8697931 49.1992188,13.5869141 L49.1777344,13.5869141 C49.1562499,13.8518893 49.1097009,14.1096993 49.0380859,14.3603516 L47.4428711,20 L46.3955078,20 L44.1396484,12.2978516 L45.1333008,12.2978516 L46.7714844,18.2060547 C46.8395186,18.4531262 46.8824869,18.7109362 46.9003906,18.9794922 L46.9272461,18.9794922 C46.9451498,18.7897126 47.0006506,18.5319027 47.09375,18.2060547 L48.7963867,12.2978516 L49.6611328,12.2978516 L51.2939453,18.2490234 C51.3512373,18.453126 51.3942056,18.6930325 51.4228516,18.96875 L51.4443359,18.96875 C51.4586589,18.7825512 51.5069983,18.5354833 51.5893555,18.2275391 L53.1630859,12.2978516 L54.140625,12.2978516 Z M55.6172737,13.1035156 C55.4597209,13.1035156 55.3254449,13.0498052 55.2144417,12.9423828 C55.1034385,12.8349604 55.0479378,12.6988941 55.0479378,12.5341797 C55.0479378,12.3694653 55.1034385,12.2325038 55.2144417,12.123291 C55.3254449,12.0140782 55.4597209,11.9594727 55.6172737,11.9594727 C55.7784073,11.9594727 55.9153689,12.0140782 56.0281624,12.123291 C56.1409559,12.2325038 56.1973519,12.3694653 56.1973519,12.5341797 C56.1973519,12.6917326 56.1409559,12.8260086 56.0281624,12.9370117 C55.9153689,13.0480149 55.7784073,13.1035156 55.6172737,13.1035156 L55.6172737,13.1035156 Z M56.0469612,20 L55.1661019,20 L55.1661019,14.5 L56.0469612,14.5 L56.0469612,20 Z M62.395192,20 L61.5143326,20 L61.5143326,16.8632812 C61.5143326,15.6959577 61.0882301,15.1123047 60.2360123,15.1123047 C59.7955804,15.1123047 59.4312449,15.2779118 59.1429947,15.6091309 C58.8547446,15.94035 58.7106217,16.3583959 58.7106217,16.8632812 L58.7106217,20 L57.8297623,20 L57.8297623,14.5 L58.7106217,14.5 L58.7106217,15.4130859 L58.7321061,15.4130859 C59.1474727,14.718421 59.7490292,14.3710938 60.5367936,14.3710938 C61.1383591,14.3710938 61.5984782,14.5653464 61.9171646,14.9538574 C62.2358511,15.3423685 62.395192,15.9036422 62.395192,16.6376953 L62.395192,20 Z M68.7487938,20 L67.8679345,20 L67.8679345,19.0654297 L67.8464501,19.0654297 C67.4382449,19.7744176 66.8080429,20.1289062 65.9558251,20.1289062 C65.2647409,20.1289062 64.712419,19.8827336 64.2988427,19.3903809 C63.8852664,18.8980281 63.6784813,18.2275433 63.6784813,17.3789062 C63.6784813,16.4693965 63.9076457,15.7407254 64.3659813,15.1928711 C64.824317,14.6450168 65.4348252,14.3710938 66.1975243,14.3710938 C66.9530619,14.3710938 67.5026984,14.6682913 67.8464501,15.2626953 L67.8679345,15.2626953 L67.8679345,11.8574219 L68.7487938,11.8574219 L68.7487938,20 Z M67.8679345,17.5131836 L67.8679345,16.7021484 C67.8679345,16.2581358 67.721126,15.882163 67.4275048,15.5742188 C67.1338835,15.2662745 66.7614914,15.1123047 66.3103173,15.1123047 C65.7732052,15.1123047 65.3506834,15.3092428 65.0427392,15.703125 C64.7347949,16.0970072 64.5808251,16.6412726 64.5808251,17.3359375 C64.5808251,17.9697297 64.7285287,18.4701316 65.0239403,18.8371582 C65.319352,19.2041848 65.7159137,19.3876953 66.2136376,19.3876953 C66.7041999,19.3876953 67.1025521,19.210451 67.408706,18.855957 C67.7148598,18.5014631 67.8679345,18.0538764 67.8679345,17.5131836 L67.8679345,17.5131836 Z M72.830423,20.1289062 C72.0175935,20.1289062 71.3685928,19.8719915 70.8834016,19.3581543 C70.3982103,18.8443171 70.1556184,18.1630902 70.1556184,17.3144531 C70.1556184,16.3906204 70.4080572,15.6691107 70.9129426,15.1499023 C71.4178279,14.630694 72.09995,14.3710938 72.9593293,14.3710938 C73.7793204,14.3710938 74.4193693,14.6235326 74.8794953,15.128418 C75.3396213,15.6333033 75.5696809,16.3333289 75.5696809,17.2285156 C75.5696809,18.1057987 75.3217178,18.8085097 74.8257844,19.3366699 C74.3298509,19.8648301 73.6647371,20.1289062 72.830423,20.1289062 L72.830423,20.1289062 Z M72.8948762,15.1123047 C72.3291181,15.1123047 71.8815315,15.304767 71.5521027,15.6896973 C71.222674,16.0746276 71.0579621,16.6054654 71.0579621,17.2822266 C71.0579621,17.9339225 71.2244643,18.447752 71.5574738,18.8237305 C71.8904833,19.1997089 72.3362796,19.3876953 72.8948762,19.3876953 C73.4642149,19.3876953 73.9019547,19.2032896 74.2081086,18.8344727 C74.5142625,18.4656557 74.6673371,17.9410841 74.6673371,17.2607422 C74.6673371,16.5732388 74.5142625,16.0432961 74.2081086,15.6708984 C73.9019547,15.2985007 73.4642149,15.1123047 72.8948762,15.1123047 L72.8948762,15.1123047 Z M83.9052163,14.5 L82.2562905,20 L81.3432046,20 L80.2099038,16.0629883 C80.1669348,15.9125969 80.1382893,15.742514 80.1239663,15.5527344 L80.1024819,15.5527344 C80.0917397,15.6816413 80.0541424,15.8481435 79.989689,16.0522461 L78.7597085,20 L77.8788491,20 L76.21381,14.5 L77.1376382,14.5 L78.27631,18.6357422 C78.3121175,18.7610683 78.3371824,18.9257802 78.3515054,19.1298828 L78.3944741,19.1298828 C78.4052164,18.9723299 78.4374426,18.8040374 78.4911538,18.625 L79.7587319,14.5 L80.564396,14.5 L81.7030679,18.6464844 C81.7388753,18.778972 81.7657305,18.9436839 81.7836343,19.140625 L81.826603,19.140625 C81.8337645,19.0009759 81.8642004,18.836264 81.9179116,18.6464844 L83.0350991,14.5 L83.9052163,14.5 Z M84.5923142,19.8012695 L84.5923142,18.855957 C85.0721344,19.210451 85.6002866,19.3876953 86.1767869,19.3876953 C86.9502283,19.3876953 87.3369432,19.1298854 87.3369432,18.6142578 C87.3369432,18.4674472 87.3038217,18.3430181 87.2375779,18.2409668 C87.1713341,18.1389155 87.0818168,18.048503 86.9690232,17.9697266 C86.8562297,17.8909501 86.723744,17.8202314 86.5715623,17.7575684 C86.4193805,17.6949053 86.2555638,17.6295576 86.0801072,17.5615234 C85.8366164,17.4648433 85.62267,17.3672694 85.4382615,17.2687988 C85.253853,17.1703283 85.0998832,17.0593268 84.9763474,16.935791 C84.8528117,16.8122552 84.7597136,16.671713 84.6970506,16.5141602 C84.6343875,16.3566073 84.6030564,16.1722016 84.6030564,15.9609375 C84.6030564,15.7031237 84.6621379,15.4748545 84.7803025,15.276123 C84.8984672,15.0773916 85.0560177,14.9108893 85.2529588,14.7766113 C85.4498999,14.6423333 85.6745884,14.5411787 85.927031,14.4731445 C86.1794737,14.4051103 86.4399692,14.3710938 86.7085252,14.3710938 C87.1847645,14.3710938 87.6108671,14.4534497 87.9868455,14.6181641 L87.9868455,15.5097656 C87.5822211,15.2447903 87.1167309,15.1123047 86.5903611,15.1123047 C86.4256468,15.1123047 86.277048,15.1311033 86.1445603,15.1687012 C86.0120727,15.206299 85.8983857,15.2591142 85.8034959,15.3271484 C85.7086061,15.3951826 85.6352019,15.4766434 85.583281,15.5715332 C85.5313602,15.666423 85.5054002,15.7711583 85.5054002,15.8857422 C85.5054002,16.0289721 85.5313602,16.1489253 85.583281,16.2456055 C85.6352019,16.3422856 85.7112916,16.4282223 85.8115525,16.503418 C85.9118134,16.5786137 86.033557,16.6466468 86.1767869,16.7075195 C86.3200168,16.7683922 86.4829383,16.8346351 86.6655564,16.90625 C86.9090472,16.9993494 87.1274695,17.095133 87.3208299,17.1936035 C87.5141902,17.2920741 87.6789021,17.4030756 87.8149705,17.5266113 C87.9510389,17.6501471 88.0557742,17.7924797 88.1291795,17.9536133 C88.2025848,18.1147469 88.2392869,18.306314 88.2392869,18.5283203 C88.2392869,18.8004571 88.1793103,19.0367829 88.0593553,19.2373047 C87.9394002,19.4378265 87.7791642,19.6043288 87.5786424,19.7368164 C87.3781205,19.869304 87.1471658,19.9677731 86.8857713,20.0322266 C86.6243767,20.09668 86.3504537,20.1289062 86.0639939,20.1289062 C85.4982359,20.1289062 85.0076809,20.0196951 84.5923142,19.8012695 L84.5923142,19.8012695 Z M93.6256898,17.0888672 L93.6256898,20 L92.7233461,20 L92.7233461,12.2978516 L94.839557,12.2978516 C95.6631288,12.2978516 96.3013874,12.4983704 96.7543519,12.8994141 C97.2073164,13.3004577 97.4337953,13.8662073 97.4337953,14.5966797 C97.4337953,15.3271521 97.1822516,15.9251279 96.6791566,16.390625 C96.1760617,16.8561221 95.4966251,17.0888672 94.6408265,17.0888672 L93.6256898,17.0888672 Z M93.6256898,13.1142578 L93.6256898,16.2724609 L94.5710023,16.2724609 C95.1940523,16.2724609 95.6693894,16.1301284 95.9970277,15.845459 C96.3246661,15.5607896 96.4884828,15.1588568 96.4884828,14.6396484 C96.4884828,13.6227163 95.8869263,13.1142578 94.6837953,13.1142578 L93.6256898,13.1142578 Z M103.330854,20 L102.449995,20 L102.449995,16.8310547 C102.449995,15.6852156 102.023892,15.1123047 101.171674,15.1123047 C100.741985,15.1123047 100.380335,15.2779118 100.086714,15.6091309 C99.7930923,15.94035 99.6462839,16.3655573 99.6462839,16.8847656 L99.6462839,20 L98.7654245,20 L98.7654245,11.8574219 L99.6462839,11.8574219 L99.6462839,15.4130859 L99.6677682,15.4130859 C100.090296,14.718421 100.691853,14.3710938 101.472456,14.3710938 C102.711394,14.3710938 103.330854,15.1176683 103.330854,16.6108398 L103.330854,20 Z M107.288948,20.1289062 C106.476119,20.1289062 105.827118,19.8719915 105.341927,19.3581543 C104.856736,18.8443171 104.614144,18.1630902 104.614144,17.3144531 C104.614144,16.3906204 104.866582,15.6691107 105.371468,15.1499023 C105.876353,14.630694 106.558475,14.3710938 107.417854,14.3710938 C108.237846,14.3710938 108.877894,14.6235326 109.33802,15.128418 C109.798146,15.6333033 110.028206,16.3333289 110.028206,17.2285156 C110.028206,18.1057987 109.780243,18.8085097 109.28431,19.3366699 C108.788376,19.8648301 108.123262,20.1289062 107.288948,20.1289062 L107.288948,20.1289062 Z M107.353401,15.1123047 C106.787643,15.1123047 106.340057,15.304767 106.010628,15.6896973 C105.681199,16.0746276 105.516487,16.6054654 105.516487,17.2822266 C105.516487,17.9339225 105.68299,18.447752 106.015999,18.8237305 C106.349008,19.1997089 106.794805,19.3876953 107.353401,19.3876953 C107.92274,19.3876953 108.36048,19.2032896 108.666634,18.8344727 C108.972788,18.4656557 109.125862,17.9410841 109.125862,17.2607422 C109.125862,16.5732388 108.972788,16.0432961 108.666634,15.6708984 C108.36048,15.2985007 107.92274,15.1123047 107.353401,15.1123047 L107.353401,15.1123047 Z M116.00046,20 L115.119601,20 L115.119601,16.8632812 C115.119601,15.6959577 114.693498,15.1123047 113.841281,15.1123047 C113.400849,15.1123047 113.036513,15.2779118 112.748263,15.6091309 C112.460013,15.94035 112.31589,16.3583959 112.31589,16.8632812 L112.31589,20 L111.435031,20 L111.435031,14.5 L112.31589,14.5 L112.31589,15.4130859 L112.337374,15.4130859 C112.752741,14.718421 113.354297,14.3710938 114.142062,14.3710938 C114.743627,14.3710938 115.203746,14.5653464 115.522433,14.9538574 C115.841119,15.3423685 116.00046,15.9036422 116.00046,16.6376953 L116.00046,20 Z M122.080136,17.4702148 L118.196836,17.4702148 C118.211159,18.0825226 118.37587,18.5551741 118.690976,18.8881836 C119.006082,19.2211931 119.439346,19.3876953 119.990781,19.3876953 C120.61025,19.3876953 121.17958,19.1835958 121.698789,18.7753906 L121.698789,19.6025391 C121.215388,19.9534523 120.576234,20.1289062 119.781308,20.1289062 C119.004286,20.1289062 118.393778,19.8791529 117.949765,19.3796387 C117.505753,18.8801245 117.28375,18.1774134 117.28375,17.2714844 C117.28375,16.4156858 117.526342,15.7183458 118.011533,15.1794434 C118.496724,14.6405409 119.099176,14.3710938 119.818906,14.3710938 C120.538636,14.3710938 121.095434,14.6038388 121.489316,15.0693359 C121.883198,15.5348331 122.080136,16.1811482 122.080136,17.0083008 L122.080136,17.4702148 Z M121.177793,16.7236328 C121.174212,16.2151667 121.051573,15.8195001 120.809873,15.5366211 C120.568172,15.2537421 120.232482,15.1123047 119.802793,15.1123047 C119.387426,15.1123047 119.034728,15.2609035 118.744687,15.5581055 C118.454647,15.8553075 118.275612,16.2438127 118.207578,16.7236328 L121.177793,16.7236328 Z M44.6499023,31.6884766 L44.6499023,30.625 C44.7716477,30.7324224 44.917561,30.8291011 45.0876465,30.9150391 C45.257732,31.000977 45.4367666,31.073486 45.6247559,31.1325684 C45.8127451,31.1916507 46.0016267,31.2373045 46.1914062,31.2695312 C46.3811858,31.301758 46.5566398,31.3178711 46.7177734,31.3178711 C47.2727892,31.3178711 47.6872545,31.2149262 47.9611816,31.0090332 C48.2351088,30.8031402 48.3720703,30.5068379 48.3720703,30.1201172 C48.3720703,29.9124339 48.3264165,29.7316088 48.2351074,29.5776367 C48.1437984,29.4236646 48.0175789,29.2831224 47.8564453,29.1560059 C47.6953117,29.0288893 47.5046398,28.9071458 47.2844238,28.7907715 C47.0642079,28.6743972 46.8269869,28.5517585 46.5727539,28.4228516 C46.3041979,28.2867832 46.0535493,28.1489265 45.8208008,28.0092773 C45.5880522,27.8696282 45.385743,27.7156584 45.2138672,27.5473633 C45.0419913,27.3790682 44.9068202,27.1883962 44.8083496,26.9753418 C44.7098791,26.7622873 44.6606445,26.512534 44.6606445,26.2260742 C44.6606445,25.875161 44.7376294,25.5699069 44.8916016,25.3103027 C45.0455737,25.0506986 45.2478829,24.8367521 45.4985352,24.668457 C45.7491875,24.5001619 46.0347477,24.3748377 46.3552246,24.2924805 C46.6757015,24.2101233 47.0024397,24.1689453 47.3354492,24.1689453 C48.0945676,24.1689453 48.6477847,24.260253 48.9951172,24.4428711 L48.9951172,25.4580078 C48.5403623,25.1429021 47.9567093,24.9853516 47.2441406,24.9853516 C47.0471995,24.9853516 46.8502614,25.0059405 46.6533203,25.0471191 C46.4563792,25.0882977 46.2809252,25.1554357 46.1269531,25.2485352 C45.972981,25.3416346 45.8476567,25.4615878 45.7509766,25.6083984 C45.6542964,25.7552091 45.605957,25.9342437 45.605957,26.1455078 C45.605957,26.3424489 45.6426591,26.5125318 45.7160645,26.6557617 C45.7894698,26.7989916 45.8977857,26.9296869 46.0410156,27.0478516 C46.1842455,27.1660162 46.3588043,27.2805984 46.5646973,27.3916016 C46.7705902,27.5026047 47.0078112,27.6243483 47.2763672,27.7568359 C47.5520847,27.8929043 47.8134753,28.0361321 48.0605469,28.1865234 C48.3076184,28.3369148 48.5242504,28.5034171 48.7104492,28.6860352 C48.8966481,28.8686533 49.0443517,29.0709624 49.1535645,29.2929688 C49.2627772,29.5149751 49.3173828,29.7692043 49.3173828,30.0556641 C49.3173828,30.4352233 49.2430834,30.7565905 49.0944824,31.0197754 C48.9458814,31.2829603 48.7453626,31.4969067 48.4929199,31.6616211 C48.2404773,31.8263355 47.9495459,31.9453935 47.6201172,32.0187988 C47.2906885,32.0922041 46.9433612,32.1289062 46.578125,32.1289062 C46.4563796,32.1289062 46.3059905,32.1190593 46.1269531,32.0993652 C45.9479158,32.0796711 45.7653004,32.0510256 45.5791016,32.0134277 C45.3929027,31.9758299 45.2165536,31.9292809 45.0500488,31.8737793 C44.8835441,31.8182777 44.7501633,31.7565108 44.6499023,31.6884766 L44.6499023,31.6884766 Z M52.9317269,31.9462891 C52.7240435,32.060873 52.4501205,32.1181641 52.1099495,32.1181641 C51.1467285,32.1181641 50.6651253,31.5810601 50.6651253,30.5068359 L50.6651253,27.2519531 L49.7198128,27.2519531 L49.7198128,26.5 L50.6651253,26.5 L50.6651253,25.1572266 L51.5459847,24.8725586 L51.5459847,26.5 L52.9317269,26.5 L52.9317269,27.2519531 L51.5459847,27.2519531 L51.5459847,30.3510742 C51.5459847,30.7198912 51.6086468,30.9830721 51.7339729,31.140625 C51.8592991,31.2981779 52.0669793,31.3769531 52.3570198,31.3769531 C52.5790261,31.3769531 52.7705932,31.3160813 52.9317269,31.1943359 L52.9317269,31.9462891 Z M56.320485,32.1289062 C55.5076554,32.1289062 54.8586547,31.8719915 54.3734635,31.3581543 C53.8882722,30.8443171 53.6456803,30.1630902 53.6456803,29.3144531 C53.6456803,28.3906204 53.8981192,27.6691107 54.4030045,27.1499023 C54.9078898,26.630694 55.5900119,26.3710938 56.4493912,26.3710938 C57.2693823,26.3710938 57.9094312,26.6235326 58.3695572,27.128418 C58.8296832,27.6333033 59.0597428,28.3333289 59.0597428,29.2285156 C59.0597428,30.1057987 58.8117798,30.8085097 58.3158463,31.3366699 C57.8199128,31.8648301 57.154799,32.1289062 56.320485,32.1289062 L56.320485,32.1289062 Z M56.3849381,27.1123047 C55.81918,27.1123047 55.3715934,27.304767 55.0421646,27.6896973 C54.7127359,28.0746276 54.548024,28.6054654 54.548024,29.2822266 C54.548024,29.9339225 54.7145263,30.447752 55.0475357,30.8237305 C55.3805452,31.1997089 55.8263415,31.3876953 56.3849381,31.3876953 C56.9542769,31.3876953 57.3920166,31.2032896 57.6981705,30.8344727 C58.0043244,30.4656557 58.157399,29.9410841 58.157399,29.2607422 C58.157399,28.5732388 58.0043244,28.0432961 57.6981705,27.6708984 C57.3920166,27.2985007 56.9542769,27.1123047 56.3849381,27.1123047 L56.3849381,27.1123047 Z M63.3347313,27.3916016 C63.1807592,27.2734369 62.9587562,27.2143555 62.6687157,27.2143555 C62.2927373,27.2143555 61.9785314,27.3915998 61.7260888,27.7460938 C61.4736461,28.1005877 61.3474267,28.5839813 61.3474267,29.1962891 L61.3474267,32 L60.4665673,32 L60.4665673,26.5 L61.3474267,26.5 L61.3474267,27.6333008 L61.368911,27.6333008 C61.4942372,27.2465801 61.6858043,26.9449067 61.9436181,26.7282715 C62.2014318,26.5116363 62.4896777,26.4033203 62.8083642,26.4033203 C63.037532,26.4033203 63.2129859,26.4283852 63.3347313,26.4785156 L63.3347313,27.3916016 Z M68.5657746,29.4702148 L64.6824738,29.4702148 C64.6967968,30.0825226 64.8615087,30.5551741 65.1766144,30.8881836 C65.4917202,31.2211931 65.9249841,31.3876953 66.4764191,31.3876953 C67.0958884,31.3876953 67.6652186,31.1835958 68.1844269,30.7753906 L68.1844269,31.6025391 C67.7010261,31.9534523 67.0618723,32.1289062 66.2669465,32.1289062 C65.4899244,32.1289062 64.8794161,31.8791529 64.4354035,31.3796387 C63.9913909,30.8801245 63.7693879,30.1774134 63.7693879,29.2714844 C63.7693879,28.4156858 64.0119799,27.7183458 64.4971711,27.1794434 C64.9823623,26.6405409 65.584814,26.3710938 66.3045441,26.3710938 C67.0242743,26.3710938 67.5810721,26.6038388 67.9749543,27.0693359 C68.3688365,27.5348331 68.5657746,28.1811482 68.5657746,29.0083008 L68.5657746,29.4702148 Z M67.6634309,28.7236328 C67.6598501,28.2151667 67.5372114,27.8195001 67.2955109,27.5366211 C67.0538105,27.2537421 66.7181205,27.1123047 66.2884309,27.1123047 C65.8730642,27.1123047 65.5203659,27.2609035 65.2303254,27.5581055 C64.9402849,27.8553075 64.7612502,28.2438127 64.693216,28.7236328 L67.6634309,28.7236328 Z" id="Windows-Phone" fill="#FFFFFF" sketch:type="MSShapeGroup"></path>
            </g>
        </g>
    </g>
</svg>