<svg xmlns="http://www.w3.org/2000/svg" viewBox="1485.492 1381.663 64.482 51.586">
  <defs>
    <style>
      .cls-1 {
        fill: #0460a3;
      }
    </style>
  </defs>
  <g id="Gruppe_280" data-name="Gruppe 280" transform="translate(68 -26)">
    <path id="ic_local_atm_24px" class="cls-1" d="M31.017,45.914h6.448V42.689h3.224a3.234,3.234,0,0,0,3.224-3.224V29.793a3.234,3.234,0,0,0-3.224-3.224H31.017V23.345h12.9V16.9H37.465V13.672H31.017V16.9H27.793a3.234,3.234,0,0,0-3.224,3.224v9.672a3.234,3.234,0,0,0,3.224,3.224h9.672v3.224h-12.9v6.448h6.448ZM60.034,4H8.448a6.4,6.4,0,0,0-6.416,6.448L2,49.138a6.426,6.426,0,0,0,6.448,6.448H60.034a6.426,6.426,0,0,0,6.448-6.448V10.448A6.426,6.426,0,0,0,60.034,4Zm0,45.138H8.448V10.448H60.034Z" transform="translate(1415.492 1403.663)"/>
  </g>
</svg>
