<svg xmlns="http://www.w3.org/2000/svg" viewBox="371 1381.412 55.619 68.639">
  <defs>
    <style>
      .cls-1 {
        fill: #0460a3;
      }
    </style>
  </defs>
  <g id="Gruppe_279" data-name="Gruppe 279" transform="translate(-68 -26)">
    <path id="Differenzmenge_2" data-name="Differenzmenge 2" class="cls-1" d="M28.138,68.639l0,0L10.809,51.244A28.726,28.726,0,0,1,0,28.6C0,12.832,12.476,0,27.81,0S55.619,12.832,55.619,28.6a28.979,28.979,0,0,1-9.5,21.528L28.14,68.637ZM27.616,5.856c-12,0-21.759,10.042-21.759,22.384a22.477,22.477,0,0,0,8.457,17.714l13.56,13.613L41.948,45.085a22.676,22.676,0,0,0,7.43-16.844C49.378,15.9,39.616,5.856,27.616,5.856Z" transform="translate(439 1407.412)"/>
  </g>
</svg>
